<?xml version="1.0" standalone="no"?>
<!DOCTYPE svg PUBLIC "-//W3C//DTD SVG 20010904//EN"
 "http://www.w3.org/TR/2001/REC-SVG-20010904/DTD/svg10.dtd">
<svg version="1.0" xmlns="http://www.w3.org/2000/svg"
 width="1270.000000pt" height="1270.000000pt" viewBox="0 0 1270.000000 1270.000000"
 preserveAspectRatio="xMidYMid meet">

<g transform="translate(0.000000,1270.000000) scale(0.100000,-0.100000)"
fill="#000000" stroke="none">
<path d="M6115 12693 c-1256 -49 -2445 -453 -3449 -1171 -2035 -1456 -3021
-3933 -2545 -6392 285 -1470 1096 -2803 2280 -3746 829 -661 1821 -1104 2869
-1283 618 -106 1290 -118 1916 -37 1132 148 2231 617 3119 1330 354 284 717
647 1001 1001 713 887 1182 1987 1329 3115 64 492 71 1040 19 1525 -244 2284
-1706 4255 -3824 5158 -849 361 -1799 537 -2715 500z m700 -54 c1708 -131
3264 -931 4365 -2244 1366 -1628 1815 -3830 1198 -5875 -157 -521 -420 -1090
-720 -1559 -831 -1299 -2121 -2257 -3603 -2675 -1760 -496 -3662 -199 -5180
809 -919 611 -1652 1431 -2150 2410 -379 745 -597 1530 -666 2395 -16 200 -16
711 0 910 87 1099 433 2112 1026 3010 335 508 766 989 1240 1385 229 192 574
433 850 595 173 101 592 308 780 386 681 279 1388 432 2175 468 117 5 541 -4
685 -15z"/>
<path d="M7450 11640 c-351 -31 -705 -121 -1007 -257 -161 -72 -270 -138 -425
-254 -186 -141 -361 -224 -593 -283 -162 -40 -230 -46 -625 -56 -416 -10 -491
-15 -895 -66 -457 -56 -662 -97 -837 -166 -203 -80 -371 -238 -444 -418 -46
-113 -57 -222 -48 -445 14 -323 10 -523 -15 -641 -60 -291 -177 -513 -370
-705 -126 -125 -231 -197 -496 -339 -322 -174 -417 -236 -551 -362 -311 -295
-471 -747 -451 -1273 17 -429 140 -830 359 -1160 97 -148 231 -281 433 -431
257 -190 381 -331 503 -572 112 -219 148 -354 182 -672 11 -107 29 -229 41
-270 31 -115 92 -220 176 -311 159 -168 272 -223 621 -299 311 -68 460 -122
637 -232 262 -164 399 -318 590 -663 197 -357 467 -604 870 -800 307 -149 619
-239 1015 -292 194 -26 681 -26 865 0 668 95 1146 353 1330 717 54 107 65 161
76 350 15 270 33 350 122 524 126 247 315 426 589 556 130 61 246 101 580 200
465 138 649 226 827 395 202 192 303 401 332 686 14 148 0 303 -61 664 -60
355 -74 493 -67 655 17 374 148 669 457 1025 134 155 196 242 239 337 128 283
142 699 34 1043 -83 262 -257 506 -459 641 -102 68 -152 90 -388 170 -105 36
-229 86 -276 110 -369 194 -605 663 -645 1279 -8 112 6 260 37 405 24 113 27
244 9 320 -83 333 -441 597 -1031 758 -175 48 -404 96 -560 117 -138 19 -534
27 -680 15z m517 -41 c500 -41 1050 -205 1358 -407 104 -68 252 -221 297 -307
79 -152 88 -247 43 -475 -58 -293 -30 -651 75 -970 121 -369 336 -634 617
-762 36 -16 140 -54 232 -85 284 -94 393 -155 527 -295 129 -135 228 -305 288
-493 110 -349 91 -755 -49 -1035 -41 -82 -93 -152 -234 -315 -239 -277 -359
-502 -422 -795 -20 -91 -23 -134 -23 -315 0 -223 2 -240 78 -680 61 -352 66
-539 19 -725 -77 -310 -310 -574 -630 -715 -137 -60 -243 -96 -503 -172 -515
-150 -716 -245 -919 -438 -180 -172 -313 -411 -350 -630 -6 -33 -15 -140 -20
-237 -11 -189 -28 -266 -84 -361 -223 -379 -747 -629 -1446 -688 -175 -14
-535 -7 -701 16 -372 50 -686 140 -975 279 -256 123 -414 233 -585 406 -127
128 -188 212 -315 435 -54 94 -118 199 -143 235 -65 93 -193 221 -297 299
-222 166 -407 248 -717 316 -414 92 -517 138 -669 303 -147 160 -180 256 -219
652 -28 287 -113 522 -278 770 -100 151 -216 267 -417 415 -90 66 -200 158
-251 210 -300 304 -501 823 -521 1345 -17 471 123 904 385 1182 128 136 254
223 552 383 323 173 434 249 576 397 141 146 242 317 308 521 70 215 77 309
66 877 -4 193 -3 234 13 290 60 224 232 406 467 494 193 73 402 112 944 176
298 35 529 50 801 50 337 0 522 25 741 101 215 74 296 119 513 282 443 334
1195 522 1868 466z"/>
<path d="M2865 8444 c-43 -22 -61 -41 -112 -111 -83 -117 -212 -400 -296 -653
-29 -86 -65 -208 -143 -481 -4 -14 -28 -17 -152 -22 -209 -8 -288 -34 -280
-91 4 -30 62 -60 87 -46 12 6 21 17 21 24 0 18 33 24 177 32 l121 7 -43 -174
c-112 -454 -167 -809 -135 -870 12 -22 62 -26 77 -6 6 6 13 48 16 92 7 104 52
324 138 664 38 151 71 282 74 291 5 15 39 18 303 29 163 6 345 14 404 17 106
6 107 6 112 -17 5 -24 16 -108 61 -489 30 -253 34 -274 62 -278 32 -5 47 21
34 60 -6 18 -27 170 -47 338 -19 168 -38 324 -41 348 l-6 43 184 -2 c160 -1
184 0 187 14 6 29 -38 39 -208 44 l-169 6 -5 36 c-3 20 -17 113 -31 206 -33
219 -85 477 -129 636 -87 318 -154 409 -261 353z m77 -81 c64 -72 143 -335
207 -688 38 -208 75 -454 69 -460 -3 -3 -178 -4 -391 -3 l-385 3 54 180 c173
574 284 857 377 953 35 37 48 39 69 15z"/>
<path d="M8988 7579 c-21 -12 -25 -88 -6 -107 30 -30 88 11 88 64 0 49 -38 69
-82 43z"/>
<path d="M4065 7487 c-179 -101 -223 -526 -72 -686 39 -41 100 -71 147 -71 87
0 202 94 306 250 84 125 109 177 94 195 -23 28 -39 15 -85 -72 -163 -315 -358
-406 -425 -200 -6 21 -12 83 -11 138 1 197 76 408 136 385 45 -17 65 -190 31
-268 -15 -34 -14 -38 3 -59 13 -16 24 -20 43 -16 39 10 53 56 53 177 0 95 -3
111 -28 161 -42 88 -112 111 -192 66z"/>
<path d="M4935 7487 c-179 -101 -223 -526 -72 -686 39 -41 100 -71 147 -71 87
0 202 94 306 250 84 125 109 177 94 195 -23 28 -39 15 -85 -72 -163 -315 -358
-406 -425 -200 -6 21 -12 83 -11 138 1 197 76 408 136 385 45 -17 65 -190 31
-268 -15 -34 -14 -38 3 -59 13 -16 24 -20 43 -16 39 10 53 56 53 177 0 95 -3
111 -28 161 -42 88 -112 111 -192 66z"/>
<path d="M10513 7497 c-82 -30 -168 -116 -219 -217 -21 -41 -29 -74 -32 -131
-6 -100 22 -165 96 -229 l51 -44 -69 -72 c-91 -96 -163 -200 -216 -309 -92
-194 -82 -327 31 -393 150 -86 451 96 572 346 92 191 58 332 -108 440 l-61 40
74 50 c100 67 150 92 238 118 78 23 99 45 66 70 -37 27 -203 -43 -342 -142
-43 -31 -83 -58 -89 -60 -19 -8 -95 57 -117 99 -51 101 29 290 147 347 82 40
122 9 112 -87 -7 -69 -2 -83 34 -83 37 0 49 24 49 97 -1 131 -99 203 -217 160z
m21 -684 c72 -43 113 -78 132 -115 49 -93 -36 -293 -181 -426 -88 -80 -162
-116 -243 -116 -57 -1 -66 2 -87 26 -89 104 21 373 248 606 34 34 63 62 65 62
3 0 32 -16 66 -37z"/>
<path d="M6739 7486 c-101 -36 -220 -175 -244 -285 -13 -62 -7 -141 16 -187
11 -25 45 -66 74 -91 l53 -47 -67 -72 c-73 -78 -173 -218 -214 -299 -82 -165
-87 -329 -11 -397 82 -73 208 -61 347 32 183 122 308 318 310 485 1 114 -43
191 -153 261 -33 22 -60 42 -60 46 0 18 258 212 381 286 l36 22 -20 -58 c-16
-43 -21 -83 -21 -167 -1 -101 1 -115 27 -168 49 -100 134 -140 217 -102 87 39
125 149 118 345 -4 108 -8 134 -31 183 -29 65 -72 97 -128 97 -76 0 -296 -132
-524 -313 l-118 -94 -34 19 c-71 42 -101 105 -90 188 11 86 85 193 158 231 49
25 74 24 100 -2 19 -19 21 -28 15 -89 -6 -58 -5 -70 10 -78 66 -37 101 90 52
188 -37 72 -112 97 -199 66z m704 -238 c24 -48 38 -212 26 -290 -17 -105 -63
-161 -116 -142 -50 17 -67 55 -71 158 -7 152 31 275 92 302 41 17 48 15 69
-28z m-586 -504 c52 -53 62 -102 39 -194 -31 -120 -118 -242 -233 -329 -82
-61 -147 -85 -211 -78 -185 21 -97 353 166 628 l75 79 61 -33 c33 -17 80 -51
103 -73z"/>
<path d="M5865 7484 c-5 -1 -22 -5 -38 -8 -43 -10 -107 -75 -138 -139 -74
-157 -60 -415 29 -527 36 -44 105 -80 156 -80 22 0 59 9 82 21 57 27 153 131
205 221 23 40 57 98 75 130 37 60 36 91 0 86 -15 -2 -37 -33 -81 -116 -101
-188 -175 -267 -262 -279 -32 -4 -45 0 -70 21 -32 27 -58 84 -66 147 -5 35 -4
36 40 47 57 16 130 87 166 163 50 106 51 229 4 277 -22 22 -79 42 -102 36z
m54 -119 c25 -52 -15 -182 -76 -247 -25 -27 -79 -55 -88 -46 -3 3 1 40 9 84
34 194 112 299 155 209z"/>
<path d="M7967 7478 c-31 -24 -38 -69 -37 -258 0 -206 14 -410 31 -452 18 -44
77 -49 99 -8 5 10 17 73 25 141 40 308 108 499 170 475 8 -3 39 -43 69 -89 83
-129 148 -167 287 -167 84 0 99 6 99 37 0 24 -1 25 -64 18 -111 -12 -163 21
-225 144 -56 111 -118 160 -185 145 -67 -14 -98 -65 -153 -254 l-33 -115 4
150 c3 83 8 162 11 177 13 49 -55 88 -98 56z"/>
<path d="M9635 7414 c-68 -35 -114 -108 -141 -220 -44 -187 24 -378 141 -400
85 -16 157 31 190 123 22 61 31 247 16 327 -28 152 -111 220 -206 170z m128
-111 c31 -69 37 -275 10 -347 -34 -91 -97 -109 -147 -43 -19 26 -21 42 -21
155 0 121 1 130 30 187 26 52 67 91 98 94 4 1 18 -20 30 -46z"/>
<path d="M8969 7323 c-30 -74 -19 -403 17 -530 16 -58 25 -67 57 -59 l22 5 0
289 c0 315 -1 322 -56 322 -23 0 -32 -6 -40 -27z"/>
<path d="M4480 6401 c-163 -53 -319 -290 -483 -731 -85 -230 -120 -340 -233
-734 -52 -181 -113 -381 -134 -445 l-40 -116 5 160 c3 88 11 259 17 380 6 121
12 400 12 620 1 420 -4 484 -44 520 -29 26 -71 16 -94 -24 -19 -32 -19 -36 -3
-63 23 -40 22 -93 -9 -775 -14 -312 -26 -719 -27 -904 -2 -318 -1 -338 17
-358 24 -26 77 -28 98 -3 23 25 60 151 107 362 132 589 362 1302 523 1625 66
131 127 225 191 292 175 185 285 96 338 -272 7 -50 14 -363 19 -830 4 -415 13
-808 19 -880 31 -343 90 -529 185 -580 29 -16 37 -17 50 -6 24 20 20 33 -19
71 -44 43 -71 122 -91 271 -13 98 -15 217 -9 864 7 789 4 895 -36 1135 -47
279 -135 416 -276 426 -32 2 -69 0 -83 -5z"/>
<path d="M7406 5144 c-22 -22 -18 -93 7 -108 21 -13 42 -2 71 38 19 25 19 29
5 54 -18 32 -59 40 -83 16z"/>
<path d="M6631 5072 c-72 -49 -168 -178 -260 -352 l-46 -87 0 133 c-1 115 -3
136 -19 153 -33 36 -77 26 -95 -22 -21 -55 -34 -307 -23 -457 11 -152 22 -180
67 -180 36 0 52 29 83 161 48 197 101 318 197 448 43 58 115 121 140 121 8 0
11 -45 11 -157 -1 -144 1 -163 23 -218 62 -157 187 -187 305 -75 57 54 128
164 119 186 -11 28 -44 15 -60 -23 -48 -117 -148 -193 -218 -167 -38 15 -45
55 -45 264 0 216 -7 253 -51 284 -35 24 -80 20 -128 -12z"/>
<path d="M8361 5072 c-72 -49 -168 -178 -260 -352 l-46 -87 0 133 c-1 115 -3
136 -19 153 -33 36 -77 26 -95 -22 -21 -55 -34 -307 -23 -457 11 -152 22 -180
67 -180 36 0 52 29 83 161 48 197 101 318 197 448 43 58 115 121 140 121 8 0
11 -45 11 -157 -1 -144 1 -163 23 -218 62 -157 187 -187 305 -75 57 54 128
164 119 186 -11 28 -44 15 -60 -23 -48 -117 -148 -193 -218 -167 -38 15 -45
55 -45 264 0 216 -7 253 -51 284 -35 24 -80 20 -128 -12z"/>
<path d="M5497 5045 c-81 -28 -140 -100 -173 -210 -25 -82 -26 -277 -2 -355
47 -152 152 -224 278 -190 64 17 178 136 245 253 28 49 62 107 77 130 20 31
24 46 17 59 -22 41 -46 20 -109 -97 -107 -200 -195 -285 -292 -285 -57 0 -118
87 -118 170 0 21 8 28 49 43 64 22 141 105 172 185 27 68 37 189 19 232 -6 15
-20 36 -31 46 -26 24 -91 33 -132 19z m78 -92 c26 -26 16 -142 -18 -209 -28
-54 -97 -124 -123 -124 -41 0 22 268 76 322 33 33 42 34 65 11z"/>
<path d="M9490 4950 c-11 -11 -20 -25 -20 -31 0 -6 -15 0 -32 13 -25 17 -46
23 -89 23 -94 0 -168 -65 -228 -203 -23 -50 -26 -71 -26 -167 0 -95 3 -116 22
-152 29 -54 58 -73 109 -73 75 0 129 68 208 264 28 68 46 101 50 90 3 -8 6
-57 6 -107 0 -123 16 -222 43 -277 18 -38 27 -45 51 -45 40 0 54 25 37 67 -29
71 -40 132 -50 279 -6 85 -14 191 -17 237 -5 67 -9 84 -25 92 -14 8 -23 6 -39
-10z m-80 -110 c26 -26 25 -44 -6 -132 -50 -141 -131 -268 -170 -268 -56 0
-41 204 23 323 49 89 110 120 153 77z"/>
<path d="M7393 4893 c-16 -24 -18 -52 -17 -223 1 -260 29 -390 84 -390 29 0
38 28 29 90 -4 30 -5 155 -2 277 5 197 4 225 -11 247 -22 35 -60 34 -83 -1z"/>
<path d="M7780 2944 c-36 -7 -101 -31 -145 -53 -68 -34 -100 -60 -220 -179
-196 -195 -307 -265 -563 -356 -97 -34 -118 -45 -120 -63 -3 -19 3 -23 41 -28
114 -17 685 80 907 155 178 60 322 177 393 319 56 111 45 173 -33 205 -50 20
-169 20 -260 0z m239 -17 c48 -17 75 -56 67 -99 -10 -54 -76 -157 -147 -228
-75 -75 -162 -125 -289 -165 -255 -80 -803 -172 -877 -148 -26 9 -19 13 87 48
243 81 393 177 593 379 92 93 138 131 185 155 119 60 298 87 381 58z"/>
<path d="M4466 2930 c-53 -16 -76 -48 -76 -105 0 -64 30 -127 104 -216 85
-104 208 -173 451 -255 143 -47 256 -65 425 -65 154 0 241 13 262 38 19 23
-14 44 -138 87 -113 39 -291 117 -383 169 -107 59 -175 111 -286 217 -100 96
-117 108 -171 123 -64 18 -141 21 -188 7z m210 -39 c32 -15 84 -57 154 -125
58 -56 126 -117 151 -134 115 -78 331 -178 552 -256 42 -16 77 -32 77 -36 0
-31 -312 -42 -462 -15 -151 26 -382 110 -499 181 -158 96 -287 317 -220 378
45 41 162 44 247 7z"/>
<path d="M6085 2866 c-22 -9 -52 -29 -67 -46 -23 -25 -28 -39 -28 -83 0 -30 9
-70 20 -96 11 -24 20 -47 20 -52 0 -6 -27 9 -60 33 -50 35 -69 42 -118 46 -70
5 -113 -13 -142 -61 -36 -58 -20 -136 36 -189 29 -27 98 -57 138 -59 11 -1 1
-5 -24 -9 -117 -20 -164 -67 -157 -158 6 -90 72 -152 159 -152 61 0 96 18 140
71 l35 41 -5 -55 c-6 -71 11 -118 53 -156 95 -83 234 -48 265 68 9 33 8 54 -3
97 l-14 55 31 -29 c48 -46 89 -62 155 -62 49 0 65 4 90 26 85 72 50 219 -62
257 l-42 14 42 12 c88 24 129 84 121 176 -6 68 -29 102 -88 133 -79 40 -151
24 -229 -51 l-43 -42 8 50 c18 112 -3 177 -67 211 -44 22 -117 27 -164 10z
m160 -36 c53 -32 68 -98 46 -194 -10 -41 -5 -66 12 -66 5 0 32 21 59 46 82 76
135 90 208 51 74 -39 100 -122 62 -197 -26 -52 -70 -72 -171 -79 -50 -4 -85
-10 -83 -16 1 -5 41 -18 88 -27 126 -25 167 -60 167 -143 0 -75 -41 -115 -119
-115 -49 0 -96 22 -149 71 -61 56 -75 44 -46 -41 27 -77 17 -124 -34 -169 -49
-43 -106 -45 -166 -6 -53 34 -73 84 -65 161 8 81 -5 90 -54 37 -59 -63 -90
-83 -127 -83 -74 0 -136 48 -149 116 -14 77 25 126 114 144 124 25 127 39 16
69 -52 15 -77 28 -101 55 -58 63 -53 146 12 186 59 36 125 22 214 -44 36 -27
65 -33 76 -16 3 5 -6 37 -20 71 -35 86 -33 129 6 168 53 54 138 62 204 21z"/>
<path d="M6117 2460 c-34 -27 -44 -78 -23 -118 32 -61 108 -72 157 -23 38 39
39 87 3 130 -21 26 -33 31 -69 31 -27 0 -51 -7 -68 -20z m109 -45 c19 -28 11
-60 -18 -76 -51 -27 -105 29 -73 77 21 33 69 33 91 -1z"/>
</g>
</svg>
